<svg width="165" height="66" viewBox="0 0 165 66" fill="none" xmlns="http://www.w3.org/2000/svg">
<path d="M75.4546 32.5957C75.4546 38.4632 70.7023 43.0101 64.5711 43.0101C58.4398 43.0101 53.6875 38.4632 53.6875 32.5957C53.6875 26.7283 58.4398 22.2397 64.5711 22.2397C70.7023 22.2397 75.4546 26.7283 75.4546 32.5957ZM57.2075 32.5957C57.2075 36.6741 60.5808 39.9004 64.6011 39.9004C68.6213 39.9004 71.9062 36.6741 71.9062 32.5957C71.9062 28.5174 68.6213 25.3494 64.6011 25.3494C60.5808 25.3494 57.2075 28.5174 57.2075 32.5957Z" fill="white"/>
<path d="M89.5953 36.6441C89.3019 36.6741 88.98 36.6741 88.6565 36.6741H83.7859V42.8633H80.3242V22.3281H88.6565C93.9074 22.3281 96.9305 24.8809 96.9305 29.3394C96.9305 32.6241 95.4048 34.9417 92.6768 35.9988L97.2824 42.8633H93.3505L89.5953 36.6441ZM88.6565 33.5645C91.8247 33.5645 93.6439 32.2156 93.6439 29.4278C93.6439 26.6399 91.8247 25.4378 88.6565 25.4378H83.7859V33.5645H88.6565Z" fill="white"/>
<path d="M119.785 32.7725V40.3406C117.702 41.9246 114.623 43.0101 111.805 43.0101C105.732 43.0101 101.008 38.4632 101.008 32.5957C101.008 26.7283 105.79 22.2397 112.01 22.2397C114.943 22.2397 117.878 23.3552 119.902 25.1143L117.936 27.667C116.352 26.1997 114.151 25.3194 112.01 25.3194C107.814 25.3194 104.53 28.5174 104.53 32.5941C104.53 36.6708 107.844 39.8988 112.04 39.8988C113.566 39.8988 115.296 39.3702 116.764 38.4898V32.7691H119.785V32.7725Z" fill="white"/>
<path d="M145.927 32.5957C145.927 38.4632 141.175 43.0101 135.044 43.0101C128.912 43.0101 124.16 38.4632 124.16 32.5957C124.16 26.7283 128.912 22.2397 135.044 22.2397C141.175 22.2397 145.927 26.7283 145.927 32.5957ZM127.68 32.5957C127.68 36.6741 131.053 39.9004 135.074 39.9004C139.094 39.9004 142.379 36.6741 142.379 32.5957C142.379 28.5174 139.094 25.3494 135.074 25.3494C131.053 25.3494 127.68 28.5174 127.68 32.5957Z" fill="white"/>
<path d="M164.736 24.2937L163.299 27.345C161.069 25.9961 158.84 25.4375 157.284 25.4375C155.26 25.4375 153.939 26.1995 153.939 27.5784C153.939 32.0669 165.028 29.6609 164.999 37.054C164.999 40.7205 161.773 42.9798 157.254 42.9798C154.027 42.9798 150.976 41.6593 148.863 39.7235L150.359 36.7306C152.472 38.6664 155.111 39.7235 157.312 39.7235C159.718 39.7235 161.156 38.8148 161.156 37.2308C161.156 32.6539 150.067 35.2066 150.067 27.9019C150.067 24.3821 153.089 22.1812 157.547 22.1812C160.217 22.1812 162.828 23.0315 164.734 24.2937H164.736Z" fill="white"/>
<path d="M10.2248 24.6903L7.68359 21.2572C8.06711 20.9737 8.48231 20.6919 9.02757 20.3451C10.9352 19.1313 12.9778 18.0992 15.1005 17.2788L32.1336 10.356L33.7177 14.3209L16.6629 21.2522C14.7803 21.9808 12.9911 22.8845 11.3203 23.9483C10.8618 24.2401 10.525 24.4685 10.2248 24.6903Z" fill="white"/>
<path d="M36.8802 10.7113L29.6484 9.75928L32.4381 16.4971L36.8802 10.7113L29.6484 9.75928L32.4381 16.4971L36.8802 10.7113Z" fill="white"/>
<path d="M19.4395 44.8707C24.0358 44.8707 27.7618 41.1449 27.7618 36.5489C27.7618 31.9529 24.0358 28.2271 19.4395 28.2271C14.8432 28.2271 11.1172 31.9529 11.1172 36.5489C11.1172 41.1449 14.8432 44.8707 19.4395 44.8707Z" fill="white"/>
<path d="M48.0945 0.131836H47.4375V65.0589H48.0945V0.131836Z" fill="white"/>
<path d="M33.251 24.0768C32.1871 22.8513 31.215 22.066 31.215 22.066L27.3148 24.4487C28.2852 25.1206 29.1623 25.9026 29.931 26.7746C32.2571 29.4007 33.6095 32.8288 33.6095 36.492C33.6095 44.5804 27.0296 51.1615 18.9408 51.1615C10.8519 51.1615 4.27038 44.5804 4.27038 36.492C4.27038 31.8601 6.49812 27.4499 10.2282 24.6904L7.68703 21.2573C2.87472 24.8171 0 30.5128 0 36.492C0 46.9364 8.49575 55.4316 18.9408 55.4316C29.3858 55.4316 37.8798 46.9364 37.8798 36.492C37.8798 31.8251 36.1807 27.4499 33.251 24.0768Z" fill="white"/>
</svg>
