<svg width="47" height="47" viewBox="0 0 47 47" fill="none" xmlns="http://www.w3.org/2000/svg">
<rect width="47" height="47" rx="5" fill="white"/>
<path fill-rule="evenodd" clip-rule="evenodd" d="M13.5299 23.0015C14.9258 23.0015 16.0621 21.8664 16.0621 20.4705C16.0621 20.0898 15.9769 19.7288 15.8257 19.4048L18.5375 17.6566C19.0011 18.1955 19.6901 18.538 20.4544 18.538C21.2616 18.538 21.9807 18.1579 22.4448 17.568L25.0384 19.0775C24.9156 19.3741 24.8466 19.6986 24.8466 20.0388C24.8466 21.4347 25.9824 22.5698 27.3789 22.5698C28.7748 22.5698 29.9111 21.4341 29.9111 20.0388C29.9111 19.5688 29.7807 19.1284 29.5559 18.7506L32.5586 16.3627C33.0129 16.7956 33.626 17.0627 34.3028 17.0627C35.6987 17.0627 36.835 15.927 36.835 14.5316C36.835 13.1357 35.6992 12 34.3028 12C32.9069 12 31.7705 13.1352 31.7705 14.5316C31.7705 15.0016 31.9009 15.442 32.1257 15.8198L29.123 18.2077C28.6687 17.7748 28.0557 17.5083 27.3789 17.5083C26.5717 17.5083 25.8526 17.8878 25.389 18.4783L22.7977 16.9682C22.9182 16.6716 22.9872 16.3471 22.9872 16.0069C22.9872 14.611 21.8514 13.4759 20.455 13.4759C19.0591 13.4759 17.9227 14.611 17.9227 16.0069C17.9227 16.3876 18.0079 16.7486 18.1592 17.0731L15.4496 18.8213C14.9826 18.2813 14.2965 17.9394 13.5299 17.9394C12.134 17.9394 11 19.0746 11 20.4705C11 21.8664 12.1334 23.0015 13.5299 23.0015ZM15.4653 34.823V25.9208H11.5963V34.823H15.4653ZM22.3869 34.823H18.5202V22.8178H22.3869V34.823ZM29.1207 34.823L29.3113 24.5266H25.4446V34.823C29.123 34.823 26.187 34.823 29.1207 34.823ZM32.3685 34.823C36.2352 34.823 32.4158 34.823 36.2352 34.823V20.744H32.3685V34.823Z" fill="#6340FE"/>
</svg>
