<svg width="47" height="47" viewBox="0 0 47 47" fill="none" xmlns="http://www.w3.org/2000/svg">
<rect width="47" height="47" rx="5" fill="white"/>
<path d="M24.2086 20.8577C22.8755 21.0462 21.7111 22.2977 21.6999 22.309C21.6831 22.3263 21.6642 22.3414 21.6436 22.354C19.8324 23.5296 18.8115 22.6352 18.7693 22.5818C17.6106 21.5383 18.6737 19.789 18.7187 19.7159C19.1933 18.927 19.7681 18.2028 20.4287 17.5615H15.5097L13.375 24.6039C13.3979 24.6166 13.4188 24.6328 13.4369 24.6517C16.75 28.3979 21.1486 31.7223 22.8839 32.9766C23.0645 33.1102 23.2891 33.1701 23.5122 33.1444C23.7354 33.1186 23.9404 33.0091 24.0858 32.8379C24.2312 32.6668 24.3062 32.4468 24.2956 32.2224C24.285 31.9981 24.1896 31.7861 24.0286 31.6295L21.6408 29.2417C21.5884 29.189 21.559 29.1177 21.559 29.0434C21.559 28.9691 21.5884 28.8978 21.6408 28.8451C21.667 28.8188 21.6981 28.7978 21.7323 28.7836C21.7666 28.7693 21.8034 28.7619 21.8405 28.7619C21.8776 28.7619 21.9144 28.7693 21.9487 28.7836C21.9829 28.7978 22.014 28.8188 22.0402 28.8451L23.3114 30.1164L24.4364 31.2413L24.9989 31.8179C25.2007 32.0144 25.4714 32.1241 25.7531 32.1234C26.0348 32.1227 26.305 32.0117 26.5058 31.8142C26.7066 31.6167 26.8221 31.3484 26.8275 31.0668C26.8328 30.7851 26.7277 30.5126 26.5345 30.3076L24.3436 28.0211L23.9274 27.5908C23.901 27.5646 23.8801 27.5335 23.8658 27.4992C23.8515 27.465 23.8442 27.4282 23.8442 27.3911C23.8442 27.3539 23.8515 27.3172 23.8658 27.2829C23.8801 27.2486 23.901 27.2175 23.9274 27.1914C23.9535 27.165 23.9846 27.1441 24.0189 27.1298C24.0532 27.1156 24.0899 27.1082 24.127 27.1082C24.1642 27.1082 24.2009 27.1156 24.2352 27.1298C24.2695 27.1441 24.3006 27.165 24.3267 27.1914L27.5245 30.5101C27.6793 30.6633 27.8754 30.7683 28.0887 30.8123C28.3021 30.8563 28.5237 30.8374 28.7265 30.7579C28.9293 30.6783 29.1047 30.5416 29.2313 30.3644C29.3579 30.1871 29.4304 29.9768 29.4398 29.7592C29.4444 29.6058 29.4168 29.4532 29.3587 29.3113C29.3005 29.1693 29.2132 29.0411 29.1023 28.9351L27.1842 27.0789L25.8483 25.7823C25.8185 25.7575 25.7942 25.7269 25.7769 25.6922C25.7596 25.6576 25.7496 25.6197 25.7476 25.581C25.7456 25.5424 25.7516 25.5037 25.7652 25.4674C25.7788 25.4312 25.7998 25.3981 25.8268 25.3704C25.8538 25.3426 25.8862 25.3207 25.9221 25.306C25.9579 25.2914 25.9964 25.2843 26.0351 25.2852C26.0738 25.2861 26.112 25.2951 26.1471 25.3114C26.1822 25.3277 26.2136 25.3511 26.2392 25.3802L30.036 29.0561C30.1356 29.1583 30.2549 29.2394 30.3866 29.2943C30.5183 29.3493 30.6598 29.377 30.8026 29.3758C30.9453 29.3746 31.0863 29.3446 31.2171 29.2874C31.3479 29.2302 31.4658 29.1472 31.5637 29.0433C31.6615 28.9393 31.7373 28.8167 31.7865 28.6827C31.8357 28.5487 31.8572 28.4061 31.8498 28.2635C31.8424 28.121 31.8062 27.9814 31.7434 27.8532C31.6806 27.725 31.5925 27.6109 31.4844 27.5176L24.2086 20.8577Z" fill="#6340FE"/>
<path d="M14.6518 15.9131C13.1917 15.2567 11.5997 14.9467 10 15.0075V26.038H11.7184C11.9018 26.0384 12.0804 25.9791 12.227 25.8689C12.3737 25.7588 12.4805 25.6039 12.5312 25.4277L15.1131 16.9256C15.1721 16.7296 15.1578 16.5188 15.073 16.3325C14.9881 16.1463 14.8384 15.9972 14.6518 15.9131Z" fill="#6340FE"/>
<path d="M25.1197 16.4586C24.5132 16.2089 23.8355 16.1939 23.2185 16.4164C22.1413 16.8101 20.5692 17.7551 19.1883 20.0107C19.1883 20.0276 18.3248 21.4169 19.1376 22.1651C19.1658 22.1904 19.8914 22.7979 21.2976 21.9007C21.5001 21.6898 22.7685 20.4185 24.2676 20.2807C24.3063 20.2775 24.3453 20.2823 24.3821 20.2949C24.4189 20.3075 24.4527 20.3275 24.4813 20.3538L31.8528 27.1037C31.8865 27.1347 31.9175 27.1684 31.9484 27.2022C32.7921 27.0728 33.3546 26.3022 33.5178 26.0209L30.8459 18.7395L25.1197 16.4586Z" fill="#6340FE"/>
<path d="M36.4391 16.3489C34.8349 16.3383 33.2438 16.6381 31.7536 17.232C31.5532 17.3179 31.3938 17.478 31.3088 17.6789C31.2239 17.8797 31.22 18.1056 31.298 18.3092L34.4282 26.8281C34.4893 26.9925 34.599 27.1343 34.7427 27.2348C34.8864 27.3353 35.0573 27.3896 35.2326 27.3906H37.0016V16.363C36.861 16.3545 36.6669 16.3489 36.4391 16.3489Z" fill="#6340FE"/>
</svg>
