<svg width="47" height="47" viewBox="0 0 47 47" fill="none" xmlns="http://www.w3.org/2000/svg">
<rect width="47" height="47" rx="5" fill="white"/>
<path d="M28.0313 33.3888H12.9329C11.6249 33.3888 10.6933 32.1146 11.0939 30.8692L12.6819 25.9072C13.1936 24.3144 14.9361 23.489 16.4903 24.0924C17.5232 24.493 18.8506 24.8067 20.4773 24.8067C21.9205 24.8067 23.1272 24.5606 24.107 24.2227C24.2615 25.3135 24.7587 26.3706 25.5985 27.2057C26.5591 28.1662 27.8285 28.7116 29.1849 28.7503L29.8655 30.8692C30.2661 32.1146 29.3393 33.3888 28.0313 33.3888Z" fill="#6340FE"/>
<path d="M20.4843 22.9529C23.2327 22.9529 25.4607 20.7249 25.4607 17.9765C25.4607 15.228 23.2327 13 20.4843 13C17.7359 13 15.5078 15.228 15.5078 17.9765C15.5078 20.7249 17.7359 22.9529 20.4843 22.9529Z" fill="#6340FE"/>
<path d="M34.7522 27.6687L32.9373 25.8538C34.0475 24.1789 33.8641 21.8958 32.3919 20.4236C30.7073 18.739 27.9705 18.739 26.2908 20.4236C24.6062 22.1081 24.6062 24.845 26.2908 26.5247C27.7678 28.0017 30.0509 28.1803 31.7258 27.0701L33.5407 28.885C33.8737 29.2181 34.4192 29.2181 34.7522 28.885C35.0853 28.552 35.0853 28.0065 34.7522 27.6687ZM27.4975 25.3132C26.4838 24.2995 26.4838 22.6536 27.4975 21.6351C28.5111 20.6167 30.1571 20.6215 31.1755 21.6351C32.194 22.6487 32.1892 24.2947 31.1755 25.3083C30.1619 26.3268 28.5159 26.3268 27.4975 25.3132Z" fill="#6340FE"/>
</svg>
