<svg width="47" height="47" viewBox="0 0 47 47" fill="none" xmlns="http://www.w3.org/2000/svg">
<rect width="47" height="47" rx="5" fill="white"/>
<path d="M13.2097 28.843V17.1816C12.7984 17.2905 12.3871 17.4236 12 17.5445V32.2663C15.247 31.3689 18.6974 31.5471 21.8347 32.7744C19.7027 30.6187 16.798 29.4037 13.7661 29.3994C13.4615 29.393 13.2161 29.1476 13.2097 28.843Z" fill="#6340FE"/>
<path d="M14.3449 14L14.3086 28.3468C17.8695 28.5312 21.1905 30.1983 23.4658 32.9436V19.2621C21.3885 16.2074 18.0291 14.2693 14.3449 14Z" fill="#6340FE"/>
<path d="M34.7883 17.2051V28.8543C34.7819 29.1589 34.5365 29.4043 34.2319 29.4107C31.2067 29.4134 28.309 30.6292 26.1875 32.7857V32.7978C29.3145 31.5661 32.7561 31.3794 35.998 32.2655V17.5679C35.6109 17.4349 35.2117 17.3019 34.7883 17.2051Z" fill="#6340FE"/>
<path d="M33.7038 14C30.0048 14.2425 26.6271 16.186 24.5586 19.2621V32.9436C26.8312 30.2013 30.1471 28.5345 33.7038 28.3468V14Z" fill="#6340FE"/>
</svg>
