<svg width="47" height="47" viewBox="0 0 47 47" fill="none" xmlns="http://www.w3.org/2000/svg">
<rect width="47" height="47" rx="5" fill="white"/>
<path d="M25.3046 32.4119H19.9685V15.218H25.3046V20.4354H27.5576V14.0618C27.5576 13.4689 27.0833 12.9946 26.4904 12.9946H19.9685V10.7713C19.9685 10.208 19.4053 9.85227 18.9013 10.0598L9.8597 14.1211C9.35574 14.3583 9 14.8622 9 15.4255V32.234C9 32.7973 9.32609 33.3012 9.8597 33.5384L18.9013 37.5997C19.4053 37.8369 19.9685 37.4515 19.9685 36.8882V34.6649H26.4904C27.0833 34.6649 27.5576 34.1906 27.5576 33.5977V27.1944H25.3046V32.4119Z" fill="#6340FE"/>
<path d="M36.8918 23.2518L31.4965 18.8644C31.0222 18.479 30.281 18.8051 30.281 19.4573V21.9771H22.0991C21.7434 21.9771 21.4766 22.2736 21.4766 22.5997V25.0898C21.4766 25.4455 21.773 25.7123 22.0991 25.7123H30.281V28.2321C30.281 28.8547 31.0222 29.2104 31.4965 28.825L36.8918 24.408C37.2475 24.1115 37.2475 23.5483 36.8918 23.2518Z" fill="#6340FE"/>
</svg>
